<svg width="126" height="126" viewBox="0 0 126 126" fill="none" xmlns="http://www.w3.org/2000/svg">
<path d="M32.3077 50.5203C32.3077 49.968 32.7554 49.5203 33.3077 49.5203H47.4615C48.0138 49.5203 48.4615 49.968 48.4615 50.5203L48.4615 71.3649C48.4615 71.9171 48.9093 72.3649 49.4615 72.3649H77.1213C77.3882 72.3649 77.6441 72.2581 77.8319 72.0684L80.4799 69.3936C80.6652 69.2064 80.7692 68.9536 80.7692 68.6901V33.6351C80.7692 33.0829 81.2169 32.6351 81.7692 32.6351H122.352C122.619 32.6351 122.875 32.5284 123.063 32.3387L125.711 29.6639C125.896 29.4767 126 29.2238 126 28.9604L126 1C126 0.447716 125.552 0 125 0H49.4615C48.9093 0 48.4615 0.447716 48.4615 1V37.9916V17.8851C48.4615 17.3329 48.0138 16.8851 47.4615 16.8851H1C0.447715 16.8851 0 17.3329 0 17.8851L0 104C0 104.552 0.447717 105 1 105H28.6597C28.9267 105 29.1826 104.893 29.3704 104.704L32.0184 102.029C32.2037 101.842 32.3077 101.589 32.3077 101.325L32.3077 50.5203Z" fill="url(#paint0_linear_1289_150)"/>
<path d="M94.6923 72.3649C94.14 72.3649 93.6923 72.8126 93.6923 73.3649V125C93.6923 125.552 94.14 126 94.6923 126H122.352C122.619 126 122.875 125.893 123.063 125.704L125.711 123.029C125.896 122.842 126 122.589 126 122.325V73.3649C126 72.8126 125.552 72.3649 125 72.3649H94.6923Z" fill="url(#paint1_linear_1289_150)"/>
<defs>
<linearGradient id="paint0_linear_1289_150" x1="119.215" y1="1.68735e-06" x2="-6.90137e-06" y2="96.9231" gradientUnits="userSpaceOnUse">
<stop offset="0.0817308" stop-color="#FF00CC"/>
<stop offset="0.533654" stop-color="#9F6EE9"/>
<stop offset="0.956731" stop-color="#00D2FF"/>
</linearGradient>
<linearGradient id="paint1_linear_1289_150" x1="63" y1="0" x2="63" y2="126" gradientUnits="userSpaceOnUse">
<stop offset="0.182692" stop-color="#00D2FF"/>
<stop offset="0.475862" stop-color="#FF00CC"/>
<stop offset="0.870192" stop-color="#9F6EE9"/>
</linearGradient>
</defs>
</svg>
