<svg width="160" height="160" viewBox="0 0 160 160" fill="none" xmlns="http://www.w3.org/2000/svg">
<rect width="160" height="160" rx="16" fill="#732982"/>
<path d="M69.1778 105.28C68.6255 105.28 68.1778 104.832 68.1778 104.28V92.7115C68.1778 92.1593 68.6255 91.7115 69.1778 91.7115H86.3661C86.9184 91.7115 87.3661 91.2638 87.3661 90.7115V67.7056C87.3661 67.4387 87.2593 67.1828 87.0696 66.995L84.9172 64.8641C84.7299 64.6788 84.4771 64.5748 84.2136 64.5748H54.9952C54.4429 64.5748 53.9952 64.1271 53.9952 63.5748V29.7142C53.9952 29.4472 53.8885 29.1913 53.6987 29.0035L51.5463 26.8727C51.3591 26.6873 51.1062 26.5833 50.8428 26.5833H27.5834C27.0311 26.5833 26.5834 27.0311 26.5834 27.5833V90.7115C26.5834 91.2638 27.0311 91.7115 27.5834 91.7115H58.4943H41.766C41.2138 91.7115 40.766 92.1593 40.766 92.7115V131.417C40.766 131.969 41.2138 132.417 41.766 132.417H113.778C114.33 132.417 114.778 131.969 114.778 131.417V108.411C114.778 108.144 114.671 107.888 114.481 107.7L112.329 105.569C112.142 105.384 111.889 105.28 111.625 105.28H69.1778Z" fill="white"/>
<path d="M87.3661 52.7201C87.3661 53.2724 87.8138 53.7201 88.3661 53.7201H131.417C131.969 53.7201 132.417 53.2724 132.417 52.7201V29.7142C132.417 29.4472 132.31 29.1913 132.12 29.0035L129.968 26.8727C129.781 26.6873 129.528 26.5833 129.264 26.5833H88.3661C87.8138 26.5833 87.3661 27.031 87.3661 27.5833V52.7201Z" fill="#F2F5F7"/>
</svg>